<svg xmlns="http://www.w3.org/2000/svg" viewBox="0 0 617.8 617.04"><defs><style>.cls-1{fill:#161616;}.cls-2{fill:#171717;}.cls-3{fill:#151515;}.cls-4{fill:#191919;}.cls-5{fill:#545454;}.cls-6{fill:#0f0f0f;}.cls-7{fill:#1a1a1a;}.cls-8{fill:#1e1e1e;}.cls-9{fill:#1b1b1b;}.cls-10{fill:#1d1d1d;}.cls-11{fill:#101010;}.cls-12{fill:#232323;}.cls-13{fill:#f5f5f5;}.cls-14{fill:#f4f4f4;}.cls-15{fill:#28bba7;}.cls-16{fill:#6c3b96;}.cls-17{fill:#179e57;}.cls-18{fill:#111;}.cls-19{fill:#0c0c0c;}.cls-20{fill:#0e0e0e;}.cls-21{fill:#f05c35;}.cls-22{fill:#ec2e35;}.cls-23{fill:#f58e31;}.cls-24{fill:#edeb45;}.cls-25{fill:#87c455;}.cls-26{fill:#aa3394;}.cls-27{fill:#141414;}.cls-28{fill:#ffc02f;}.cls-29{fill:#0b0b0b;}.cls-30{fill:#121212;}.cls-31{fill:#252525;}.cls-32{fill:#1f1f1f;}.cls-33{fill:#383838;}.cls-34{fill:#353535;}.cls-35{fill:#fefefe;}.cls-36{fill:#1c1c1c;}.cls-37{fill:#efefef;}.cls-38{fill:#47499f;}.cls-39{fill:none;stroke-width:8px;}.cls-39,.cls-42{stroke:#000;stroke-miterlimit:10;}.cls-40{fill:#197ec2;}.cls-41{fill:#fff;opacity:0.68;}.cls-42{stroke-width:0.75px;}</style></defs><title>color__2complim</title><g id="Layer_2" data-name="Layer 2"><g id="Layer_1-2" data-name="Layer 1"><path class="cls-1" d="M18.55,268c15-14.11,34.22-20.08,56.29-14,43.55,12.06,87,24.65,130.47,36.84,3.58,1,4.22,2.16,3.52,5.71a90.34,90.34,0,0,0-.36,33.75c.51,2.79,0,4.05-3,4.81-44.34,11.06-88.54,22.69-133,33.25-25.16,6-46.38-2.35-61.29-23.31C-3.08,325-3.24,303.29,8.07,281.48,10.39,277,13.63,273.21,18.55,268Z"/><path class="cls-1" d="M127,539c-5-19.94-.83-39.67,15.28-55.95,31.78-32.13,63.94-63.87,95.81-95.92,2.62-2.63,3.94-2.63,6.7-.29a90.34,90.34,0,0,0,29.28,16.78c2.68.92,3.56,1.94,2.74,5-12,44.1-23.39,88.35-35.86,132.31-7.05,24.88-24.68,39.33-50.25,42.13-24.49,2.67-43.52-7.78-57-28.3C130.89,550.51,129.17,545.84,127,539Z"/><path class="cls-1" d="M77.89,126.16c21.9-4.63,40.92-.44,56.47,14.94,32.36,32,64.38,64.36,96.62,96.5,2.06,2.05,2.39,3.29.38,5.63A93.46,93.46,0,0,0,214,273.28c-1,2.81-2,3.37-5,2.58-43.61-11.83-87.29-23.4-130.87-35.3-24.58-6.71-41.57-27-43.78-51.35-2.2-24.2,11-47.73,33.13-58.91C71,128.5,74.86,127.34,77.89,126.16Z"/><path class="cls-2" d="M349.11,478.43c5.72,21.41,11.58,42.78,17.13,64.23,8.4,32.47-10.34,64.11-42.72,72.48-42.78,11.06-82.78-28.11-71.79-70.87,11.42-44.41,23.7-88.61,35.49-132.93.79-3,1.95-3.41,4.81-2.87a87.12,87.12,0,0,0,34.18,0c3.68-.76,4.52.72,5.32,3.78,5.78,22.08,11.73,44.12,17.62,66.17Z"/><path class="cls-1" d="M390.1,53.16C417.46,20.51,473.78,30,488.81,69.82c9.37,24.81,4.66,46.77-13.94,65.49-31.38,31.57-63,62.89-94.44,94.41-2.26,2.27-3.58,3-6.33.58a96.07,96.07,0,0,0-29.62-17.21c-1.74-.65-3.79-.7-2.91-3.91,7.65-27.68,15.11-55.42,22.63-83.14,2.67-3.83,4.06.28,6,1-.1,7.26-2.84,14-4.67,20.81-4.75,17.86-9.32,35.78-14.4,53.55-1.25,4.37-.37,6.85,4,8.42a61.86,61.86,0,0,1,17.22,10c3.2,2.54,5.46,2.37,8.48-.66q39.06-39,78.07-78.07c5.89-5.88,12.06-11.47,17.19-18.09,17.5-22.59,11.47-57.38-12.44-73-12.66-8.28-26.27-11.28-41-8.35a45.49,45.49,0,0,0-20.46,10c-2.42,2-4.53,4.43-7.33,6C391.44,58.12,390.24,56.23,390.1,53.16Z"/><path class="cls-2" d="M252.77,43C257.71,19.75,281.33.88,306.53,0,348-1.35,377,35.34,366.2,75.42q-13.32,49.3-26.49,98.64c-.81,3-1.82,6-2.74,9-2.36,1.67-4.49,2-6.09-1,.17-7.43,3.08-14.27,5-21.29q11.62-43.66,23.45-87.28c5-18.38,1.52-34.93-11.28-49.28-19.74-22.13-55.07-22.76-75.7-1.36a49.82,49.82,0,0,0-12.12,19.83,7,7,0,0,1-1.54,3.09C255.65,47,253.22,47,252.77,43Z"/><path class="cls-1" d="M568.32,224.36c-5.51,4.49-10.47,9.74-17.26,12.44a11.9,11.9,0,0,0-3.14.57c-1.62.51-3.33.85-4.43,2.35l.09-.05c-1.05.94-2.43,1-3.7,1.39q-61,16.32-122,32.61a10.72,10.72,0,0,1-4.39.74c-7.2,3-7.07,3-9.95-4.14a93.73,93.73,0,0,0-15.79-26.38c-2.14-2.47-2.41-3.81.13-6.33q47.74-47.35,95.24-94.93c13.38-13.34,29.39-19.48,48.33-17.56.72,1.12,2.51.49,3.06,1.88.3,1.76,1.18,3.62-.87,5-5.1.79-10.22-.12-15.4.48a47.57,47.57,0,0,0-28.57,14q-44.84,44.38-89.35,89.1c-5.19,5.21-5.19,5.31-1,11.49,4.71,6.9,8.29,14.39,11.68,22,.84,2,2.67,2,4.41,2.32a10.72,10.72,0,0,0,4.45-.22c39.46-10.57,78.92-21.11,118.06-31.56-.19.29-.92.2-1.54.37L420,271a10.56,10.56,0,0,1-2.45.46c-1.16-2.11.68-2.54,1.89-3.11a33.1,33.1,0,0,1,5.73-1.73q55.27-14.78,110.56-29.49c4.17-1.11,8.13-2.87,12.43-3.6,2.35-.4,4-2.34,5.47-4.1a4.42,4.42,0,0,1,.93-1.32c3.59-.63,6.55-2.6,9.56-4.52C566.65,222,566.71,222.12,568.32,224.36Z"/><path class="cls-2" d="M522.77,371.6c11.21,3,22.85,4.67,32.91,11,20.83,13.09,30.74,32.27,28.25,56.5-2.41,23.49-15.19,40.73-37.54,49.22-23.09,8.78-44.14,4.19-62.28-12.73-3.27-3-6.26-6.39-9.38-9.59-.69-2.54-.77-4.8,2.54-5.49,3.12.38,4.82,2.81,6.7,4.86,8.79,9.54,18.85,16.78,32.06,18.91,20.22,3.26,36.87-3.07,49.61-18.86,10.44-12.94,14.14-28.17,10.19-44.22-4.11-16.67-14.22-29.2-30.63-35.77-5.57-2.23-11.48-3.45-17.22-5.17-1.58-.47-3.3-.6-4.57-1.84C523.73,376.1,521.12,374,522.77,371.6Z"/><path class="cls-1" d="M461.75,452.92q-24-23.87-48.08-47.74c-8.71-8.67-17.3-17.47-26.11-26-2.12-2.05-2.41-3.3-.4-5.63A95.35,95.35,0,0,0,404.76,343c.7-2,1.26-3,3.82-2.28,12.75,3.67,25.57,7.11,38.37,10.62,1.06,2.07,2.11,4.15.44,6.41-4.13.63-7.81-1.29-11.6-2.29-6.92-1.81-13.87-3.53-20.72-5.57-3.46-1-5.26-.11-6.57,3.11a74.18,74.18,0,0,1-10.94,18.94c-2.45,3-1.77,5.13.76,7.67,13.26,13.33,26.62,26.56,39.84,39.92,10.88,11,22.16,21.59,32.31,33.27a9.37,9.37,0,0,0,3.12,4.13,3,3,0,0,1,.4,1.31,1.47,1.47,0,0,1-1.32,1.38c-2.59-.38-4.16-2.31-6-3.91C465.26,454.43,463.88,453,461.75,452.92Z"/><path class="cls-2" d="M341.53,406.37c-.6-2.11,1.22-2,2.32-2.43a98.91,98.91,0,0,0,30.54-17.48c1.14-.94,2.21-3.08,4.45-.78,14,14.37,28.2,28.61,42.32,42.89-2.66,1.48-5.49-1.75-8.14.3-1.91-.41-3.16-1.78-4.45-3.07-9-9.1-18.13-18.1-27.16-27.18-4.31-4.33-4.6-4.38-9.58-1a75.52,75.52,0,0,1-12.88,7.6c-4.33,1.84-8.27,4-9.92,8.77,1,3.21,2,6.42,2.82,9.66q13.81,51.78,27.65,103.56c.6,2.23,1.48,4.43,1.25,6.82,0,.28-.12.58.06.82,2.54-1.4,3,1,3.24,2.22,1.51,6.72,4.84,12.66,7.62,18.84-.73,2.18.67,5.67-3.51,5.74a47.19,47.19,0,0,1-11.51-23.86c.67-1.37-.09-2.61-.42-3.86q-16.54-62-33.14-124C342.75,408.68,342.79,407.22,341.53,406.37Z"/><path class="cls-2" d="M240.53,73.88c.56,1.55,1.24,3.06,1.67,4.64,11.45,42.77,22.82,85.56,34.39,128.3,1.06,3.9.4,5.49-3.52,6.77A74.46,74.46,0,0,0,250,226a19,19,0,0,1-3.56,2.81c-2.93,3.74-5.36,3.66-8.88.09-26.1-26.47-52.43-52.72-78.67-79-.81-.81-1.52-1.71-2.28-2.56a7.66,7.66,0,0,0-2.43-6c-1.47-1.47-3-3.08-1.47-5.44,3.29-.48,4.66,2.3,6.41,4.07q28.22,28.33,56.47,56.63c7.4,7.44,14.94,14.76,22.16,22.38,2.85,3,5.21,3.08,8.57.6a92.3,92.3,0,0,1,24.15-12.92,3.56,3.56,0,0,0,2.74-3.12c.07-2.24-.78-4.26-1.34-6.34-10.59-39.87-21.36-79.69-31.88-119.58a6.85,6.85,0,0,1-.18-1.94A3.25,3.25,0,0,1,240.53,73.88Z"/><path class="cls-1" d="M594.92,355l-9.55,6c-1.33,1.32-3.78.2-4.79,2.2-12,5.51-24.47,5.76-37,2.44q-63-16.71-125.89-33.74c-2.19-.59-4.35-1.3-6.52-1.95-1-2.14.45-2.9,2.06-3.41a26.61,26.61,0,0,0,4.11-1.24c6.21-.77,11.69,2.19,17.4,3.7,37.17,9.81,74.25,20,111.42,29.79,13.73,3.62,27.08,1.53,39.58-5.33,1.64-.7,3.59-.91,4.51-2.79a5.16,5.16,0,0,1,2.74-2.07c2.15-.3,3.19.27,2.17,2.64C594.67,352.44,593,353.62,594.92,355Z"/><path class="cls-1" d="M331.54,182.38c1.67,1.35,3.58.78,5.43.67-1.89,7.53-3.76,15.06-5.68,22.57-.43,1.69-.48,3.53-3.4,2.93a95.65,95.65,0,0,0-37.57,0c-.42.08-.92-.22-1.38-.34a10.41,10.41,0,0,0-.64-3.41Q271.62,142.38,254.93,80c-.37-1.4-.32-3-1.67-4a50.52,50.52,0,0,1-.48-33c1.75.71,2.46,3.27,4.9,2.77,1.55,2.13.91,4.5.61,6.76a46,46,0,0,0,1.48,18.25q16.41,60.94,32.55,122c.71,2.68,3.13,5.82-.41,8.44-1-1-1.08-2.41-1.41-3.68Q274.55,137.9,258.65,78.31c-.12-.46-.4-.9-.33-1.07,10.9,40.78,21.87,81.85,32.84,122.9.51,1.2,1.29.94,2.38.71a50.88,50.88,0,0,1,18.12-1c1.09.58,1.88,2.46,3.49.77.67-.07-.18-.06.49-.11,9.79-.73,9.72-.75,12.46-10.28C328.88,187.48,328.52,184.16,331.54,182.38Z"/><path class="cls-1" d="M388.16,561.66c2.67-.66.85-4,2.92-5,2.3.08,3.38,1.94,4.75,3.31,21.22,21.21,51.82,22,73.92,1.77,16-14.58,20.7-39.64,11.24-59.1-1.53-3.14-3.61-6-4.81-9.28,0-2.2,1.64-3.42,2.84-4.92a1.43,1.43,0,0,1,1.35-.15c19,21.67,16.56,57.37-5.34,78.7-24.11,23.47-63.5,21.95-85.51-3.31A18.15,18.15,0,0,1,388.16,561.66Z"/><path class="cls-2" d="M131,68c8.64-19.56,24.22-30.43,44.66-34.15,25.53-4.65,51.89,9.69,62.65,33.24a43,43,0,0,1,1.64,5.2,2.35,2.35,0,0,1-1.76,1.17c-2.47-2.64-2,1.4-3.35,1.45-2-.47-2.21-2.3-2.86-3.77-15-33.95-60.9-42.85-87.89-11.32-3.57,4.17-5.31,9.61-9,13.72-2.53.53-4.33-.33-5.25-2.81v0C132.41,69.29,132.41,69.29,131,68Z"/><path class="cls-2" d="M551.28,249.74c23.38-1.93,42.6,6,56,25.42,12.13,17.63,13.65,36.87,5.4,56.74-2,1.11-4,1.66-5.82-.3-.88-2.23.14-4.24.78-6.27,10.74-33.84-11.87-66.72-47.21-68.64-1.48-.08-3,.12-4.38-.66-1.17-2.66-4.3-3.35-5.79-5.71A.86.86,0,0,1,551.28,249.74Z"/><path class="cls-3" d="M447.51,357.14c0-2-1.3-3.79-.55-5.82l75.81,20.29c-.18,2,3.78,3.58.57,5.86-2.47,1.58-4.88.3-7.18-.34-21-5.8-42.12-11.23-63.13-17C451,359.54,448.68,359.37,447.51,357.14Z"/><path class="cls-2" d="M480.36,488.33l-.89.26c-1.53.89-1.64,3.31-3.81,3.51-6.26-4.67-11.37-10.55-16.83-16-12.16-12.22-24.57-24.19-36.47-36.67-1.12-1.18-2.55-2.17-2.85-4,1.73-1.07,3.06-2.66,4.83-3.69Q449.1,456.34,473.85,481C476.17,483.27,478.75,485.38,480.36,488.33Z"/><path class="cls-4" d="M369.59,127c-1.76-.51-3.25-2.6-5.39-1,4.81-17.94,9.41-35.95,14.51-53.81A44.07,44.07,0,0,1,390.1,53.16c1.16,1.45,1.76,3.49,4,3.78.87,1,.23,2-.37,2.65C385.57,69,383.52,81,380.48,92.43c-2.71,10.24-5.72,20.4-8.25,30.69C371.84,124.71,371.54,126.43,369.59,127Z"/><path class="cls-1" d="M568.32,224.36c-2.48-2.45-3.69.53-5.07,1.45-2.34,1.56-4.53,2.93-7.45,2.12-.52-1.92,1.12-2.59,2.15-3.53,17.13-15.46,23.17-34.16,16.7-56.58a26.9,26.9,0,0,1-1-4.36c1.93-2.41-.28-6.32,3-8.26C589.86,175.6,586.23,205.81,568.32,224.36Z"/><path class="cls-2" d="M129.83,70.71l4.63,2.85c1.52,1.44.72,3.09.33,4.63-4.1,16.19-1.56,31.14,8.2,44.79,1,1.33,2.08,2.6,2.23,4.36-2.76-.25-2,4-4.75,3.73C125.67,115.71,121.15,90.07,129.83,70.71Z"/><path class="cls-2" d="M548.23,129.8c10.07,3.28,17.64,9.81,23.71,18.29-.38,2.37-1.89,3.5-4.15,3.8a4.53,4.53,0,0,1-2.91-1.73,54.6,54.6,0,0,0-16.23-12.75,5.81,5.81,0,0,1-2.8-2.69C545.34,132.44,546.8,131.13,548.23,129.8Z"/><path class="cls-5" d="M409.33,287.87c1.42-1.76,3.82-1.4,5.53-2.55l10.63-2.83c.73-.2,16.07-4.9,18.25-5.1a44.47,44.47,0,0,0,7.29-1.67l10-2.63,20.07-5.27L495,264.16c17.36-4.62,34.69-9.31,52-14a1,1,0,0,1,0,1.63c-1.54,1.47-3.59,1.68-5.5,2.19q-45.86,12.28-91.71,24.52c-1,.27-2.08.59-3.12.87a52,52,0,0,0-10.4,2.68c-1.74.54-3.53.92-5.27,1.44s-3.16.87-4.74,1.31c-1.08.24-2.15.53-3.22.82-2.93.85-5.87,1.63-8.84,2.33a16.1,16.1,0,0,1-2.46.48A3.39,3.39,0,0,1,409.33,287.87Z"/><path class="cls-6" d="M253.25,76c1.88.79,1.81,2.66,2.22,4.19Q272,142,288.53,203.85c.38,1.41,1.16,2.81.4,4.34-1.15-.69-1.16-2-1.45-3q-17-63.36-33.86-126.73A20.77,20.77,0,0,1,253.25,76Z"/><path class="cls-6" d="M341.53,406.37c2.06.91,1.9,3,2.35,4.68q16.29,60.75,32.47,121.53c.45,1.68,1.62,3.41.29,5.23-.39-1.09-.87-2.15-1.17-3.26Q358.73,471.92,342,409.29C341.77,408.34,341.69,407.34,341.53,406.37Z"/><path class="cls-1" d="M413.44,274.41l130.13-34.74a27,27,0,0,1-3.18,1.29q-61.52,16.47-123.06,32.88A34,34,0,0,1,413.44,274.41Z"/><path class="cls-7" d="M410.61,307.26l.39-2.2c3.15.6,3.92,3.92,6.25,5.46,1.76,5.09-.32,10.23.23,15.34-.56,1.75-2,1.93-3.44,1.73-1.91-.27-2.55.78-2.84,2.35-3.28-.06-2-2.34-1.81-3.92C410.26,319.8,411.31,313.59,410.61,307.26Z"/><path class="cls-1" d="M594.92,355c-2.33-.19-2.56-1.25-1.59-3.22.18-.36,3.54-2-.19-2.43.77-3.86,3.91-5.74,6.65-8,2.66-1.16,5.3-2.63,8.28-.92A43.63,43.63,0,0,1,594.92,355Z"/><path class="cls-3" d="M140.47,131.07c1.62-.92,1.49-4.12,4.4-3.35,1.63.46,2.44,1.92,3.59,3,1.37,1.32.93,3.81,3,4.65a4.07,4.07,0,0,1,1.15.39c-.15,2.43,1.27,4,3,5.41,2.11,1.77,2.91,3.79,1,6.21-1.2-.93-2.78-1.5-3.14-3.25-.34-2.41-2.64-2.84-4.14-4.09a12.24,12.24,0,0,1-4.13-4.16c-1.11-1-1.51-2.73-3.21-3.12C141,132.61,140.8,131.77,140.47,131.07Z"/><path class="cls-8" d="M567.57,151.39l4.36-3.3a18.79,18.79,0,0,1,4.68,7.12l-2,8.06A15.38,15.38,0,0,1,567.57,151.39Z"/><path class="cls-9" d="M608.07,340.49c-2.77.51-5.6.76-8.18,2,1.1-4.64,3.16-8.68,7.18-11.49,1.66,1.55,3.8,0,5.56.87A21.85,21.85,0,0,1,608.07,340.49Z"/><path class="cls-3" d="M548.23,129.8c.48,2.06-2.13,2.87-1.93,4.82a1.88,1.88,0,0,1-2.48,0c-1.33-1.32-2.58-2.84-4.8-1.76-1.91.24-3.75.28-4.9-1.67l0-4c1.6-1.07,3.65,1.34,5.12-.67Z"/><path class="cls-3" d="M424.33,431.73c-2,1.24.79,2.62-.18,4l-4.21-.64c-2,.21-2.83-1.3-3.84-2.56a19.81,19.81,0,0,0-2.2-3.28c-.1-.2-.19-.4-.28-.6.53-1.36.76-3,3-1.82a35.78,35.78,0,0,0,4.54,1.72A7.64,7.64,0,0,1,424.33,431.73Z"/><path class="cls-10" d="M461.75,452.92c2.23-2,3.65.13,5.07,1.2,2.09,1.57,3.94,3.45,5.89,5.19,1.25,1.53,1.94,3.06,0,4.58A82.42,82.42,0,0,1,461.75,452.92Z"/><path class="cls-3" d="M472.7,463.89q0-2.29,0-4.58l.78-1.54c2.23,0,4.09.51,4,3.33-2.81.56-2,3.17-2.79,4.9Z"/><path class="cls-2" d="M539.21,126.55c-1.14,4.61-3.33,1.08-5.12.67-.42-1.3-3.39.6-2.68-2.13A21.76,21.76,0,0,1,539.21,126.55Z"/><path class="cls-2" d="M149.28,140c4,1.05,5.1,2.13,4.14,4.09A12.33,12.33,0,0,1,149.28,140Z"/><path class="cls-6" d="M238,72.81l2-.53.56,1.61-.09,1.22c-.85.82-1.85,1.47-2.87.51S237.1,73.63,238,72.81Z"/><path class="cls-1" d="M547.73,236.4c1.16-.29,2.34-.73,3.33.41a5.5,5.5,0,0,1-3.79,1.69C546.46,237.58,547.37,237.05,547.73,236.4Z"/><path class="cls-11" d="M547.73,236.4l-.46,2.09-3.78,1.23C544.18,237.7,545.82,236.88,547.73,236.4Z"/><path class="cls-12" d="M580.58,363.19c.46-3.21,3-1.86,4.79-2.2C584.14,362.51,582.35,362.83,580.58,363.19Z"/><path class="cls-13" d="M547.63,250.74l-.62-.55c1.3-1.32,2.64-2.27,4.27-.44l-.86.55A1.83,1.83,0,0,1,547.63,250.74Z"/><path class="cls-2" d="M131,68c.64.79,1.6.89,2.59,1.46l-3.76,1.23A3.58,3.58,0,0,1,131,68Z"/><path class="cls-2" d="M141.95,132.73c2.16-.08,2.78,1.42,3.21,3.12A8.33,8.33,0,0,1,141.95,132.73Z"/><path class="cls-14" d="M246.4,228.86A6.56,6.56,0,0,1,250,226C249.56,228,248.14,228.62,246.4,228.86Z"/><path class="cls-15" d="M198.71,575.74c-23.35,6.11-48.48-4.41-60.31-24.56a52.34,52.34,0,0,1,7.78-63.6c30.84-31.21,62.06-62,93-93.12,2.06-2.07,3.32-1.76,5.35-.16a79.22,79.22,0,0,0,21.06,12.31c4.41,1.65,4.58,3.73,3.5,7.68q-15.92,58.44-31.53,117c-2.25,8.37-4.51,16.68-9.69,23.89A54,54,0,0,1,198.71,575.74Z"/><path class="cls-16" d="M42.33,199c-6.28-25.23,4.2-50.19,24.51-61.72a52.65,52.65,0,0,1,63.92,8.52c30.6,30.5,61,61.17,91.66,91.64,2.55,2.54,2.78,4.05.49,6.89a83.35,83.35,0,0,0-12.46,21.56c-1.06,2.64-2,3.6-5,2.79C162.79,257.12,120,245.94,77.46,234,58.67,228.79,47.3,215.43,42.33,199Z"/><path class="cls-17" d="M361.56,547c.06,5.12,1.11,10.17.64,15.33-2.68,29.78-28.12,50.83-58.43,48.27-1.64-.14-3.28-.24-4.91-.36h0c-19.1-4.45-32.18-16-40.05-33.78a17.83,17.83,0,0,1-2.62-9.64c-2.19-18.28,5.15-34.88,9.52-51.93,8.16-31.81,17-63.44,25.43-95.19,1-3.72,2.13-5.14,6.23-4.46a84.31,84.31,0,0,0,22.8.22c2-.22,4.22-1.2,6.29.1,1.17,1.12,1.21,2.7,1.59,4.12q16.45,61.45,32.84,122.93C361.3,544,362.08,545.43,361.56,547Z"/><path class="cls-18" d="M361.56,547c-3-10.89-6-21.76-8.94-32.67Q340,467.39,327.53,420.43c-.43-1.6-.7-3.23-1-4.85,2,1,1.82,3.06,2.28,4.74Q345,481,361.21,541.75C361.65,543.43,362.81,545.15,361.56,547Z"/><path class="cls-19" d="M256.22,566.83l2.62,9.64A10.28,10.28,0,0,1,256.22,566.83Z"/><path class="cls-20" d="M298.86,610.23a7.74,7.74,0,0,1-.78,1.73,2.58,2.58,0,0,1-3,1c-.35-.12-.82-.73-.77-1,.29-1.73,1.86-.54,2.73-1.08a7.51,7.51,0,0,1,1.83-.57Z"/><path class="cls-21" d="M369.59,127c4-14.3,8.17-28.54,11.79-42.92,2.5-9.94,6.25-19.13,12.72-27.12,13.2-13.25,28.85-20.22,47.71-17,21.27,3.6,36.35,15.72,43,36.3,6.44,19.94,2.07,38.35-12.8,53.39-30.49,30.83-61.34,61.3-91.91,92.06-2.67,2.69-4.22,2.48-6.93.3a80.91,80.91,0,0,0-20.67-12c-3.48-1.39-4.32-2.68-3.27-6.46,6.78-24.32,13.26-48.73,19.82-73.11A31.06,31.06,0,0,0,369.59,127Z"/><path class="cls-22" d="M312.61,201c-6.84-1.22-13.61,1.08-20.44.34v0c-.39-1.94-.66-3.92-1.17-5.83-10.52-39.45-21-78.92-31.67-118.33-2.84-10.46-4-20.84-1.66-31.49,4.76-15.26,13.4-27.56,28.21-34.31,20.34-9.28,40.11-7.71,57.48,6.69s23,33.25,17.25,55.09c-9.26,35.15-18.81,70.21-28.23,105.32-.34,1.27-.56,2.56-.83,3.84-1.52,5.42-3.14,10.81-4.53,16.26-.63,2.49-1.5,3.65-4.4,3-2.47-.55-5.13-.3-7.71-.41C314.16,201,313.34,201.52,312.61,201Z"/><path class="cls-23" d="M544.13,133.93c.46,1,1.39.65,2.17.69a62.4,62.4,0,0,1,21.27,16.77l7.05,11.88c6.26,17.26,5.25,33.81-4.62,49.6-3.75,6-9,10.52-14.2,15.07l-.89.45c-4.27,6-11.28,6.83-17.45,8.53-37.73,10.4-75.58,20.35-113.38,30.46a54.59,54.59,0,0,0-8.57,2.67,5.53,5.53,0,0,1-5.72-.26,103.24,103.24,0,0,0-14.51-26c-2-2.47-1.48-3.72.5-5.69q46.2-46,92.3-92.06c12.75-12.66,28.32-17.23,46-14.87l5.36,1C541.38,131.82,542.81,132.72,544.13,133.93Z"/><path class="cls-1" d="M409.79,269.78Q473.9,252.65,538,235.53a77.17,77.17,0,0,0,16.89-7.15c.45,4.44-3.24,5.76-6,6.52-42.07,11.44-84.2,22.64-126.31,33.94-1.84.49-4.09.31-5.25,2.4a3.94,3.94,0,0,1-3.86,1C411.4,272.66,410.63,271.17,409.79,269.78Z"/><path class="cls-11" d="M413.45,272.28l3.86-1L541,238.19c-.92,2-2.52,1.67-3.71,2Q478,256.09,418.7,271.88C417,272.33,415.29,273.48,413.45,272.28Z"/><path class="cls-24" d="M477.51,461.09c-.67-1.92-3.13-1.67-4-3.33a.51.51,0,0,0-.29-.65,11.1,11.1,0,0,1-3-3.36Q433,416.31,395.8,378.91c-2.2-2.2-2.58-3.52-.51-6.08a83.88,83.88,0,0,0,12.91-22.37c1.19-3.07,2.61-3,5.21-2.33,11.34,3.09,22.73,6,34.1,9,25.18,7.13,50.44,14,75.83,20.33l16.72,4.81c21.74,6.23,37.27,25.57,38.37,47.78,1.13,22.76-12.43,44.43-33.38,52.46s-39.81,4.21-56.41-10.81C484.83,468.28,481.21,464.64,477.51,461.09Z"/><path class="cls-10" d="M470.22,453.76c1.32.83,2.73,1.58,3,3.36C471.51,456.62,469.59,456.32,470.22,453.76Z"/><path class="cls-25" d="M416.74,431.83a8.52,8.52,0,0,0,3.2,3.28l56.13,56.47q.61,0,.62.4c0,.28,0,.43-.13.46,13.66,20.21,14.86,41,1.49,61.57-19.13,29.4-61.09,31.91-84.24,5.55-.87-1-1.82-1.91-2.73-2.87-4.76-6.87-7.38-14.68-10-22.52-1.34-.8-1.26-2.27-1.59-3.51q-15.1-56.38-30.13-112.78c-.33-1.23-1.13-2.47-.37-3.83-1.66-4.15.4-6.09,4.09-7.5a82.55,82.55,0,0,0,21-12.29c2.31-1.79,3.41-1.4,5.27.46,11.35,11.39,22.83,22.65,34.27,34l0,0C415.24,429.13,415.61,430.86,416.74,431.83Z"/><path class="cls-6" d="M349,414c.56,1.73,1.21,3.44,1.68,5.2Q365.37,474,380,528.82c.47,1.76.76,3.56,1.14,5.35l1.17,6.22-.48.1L347.2,411C348.65,411.72,348.33,413.17,349,414Z"/><path class="cls-26" d="M148,131.29a9.58,9.58,0,0,1-3.18-3.58c-13.56-16.11-16.4-34.28-10.41-54.15,12.71-29.55,43.79-41,69.08-31.09,14.34,5.6,24.62,15.35,30.36,29.75a23.32,23.32,0,0,0,1.42,2.59c2.26,1.3,2.76,3.65,3.36,5.87q16.15,60.21,32.18,120.45c.59,2.22,1.4,4.52-.2,6.71-8.8,3.57-17.36,7.67-24.72,13.7-3.38,2.77-5.17,2.17-8-.71Q197.09,179.58,156,138.61c-1-1-2.23-1.93-3.36-2.89h0C149.81,135.57,149.77,132.56,148,131.29Z"/><path class="cls-27" d="M270.65,207.84q-17.1-64.09-34.2-128.19c-.43-1.6-.76-3.23-1.13-4.84-.28-2.25,0-3.71,2.69-2-1.16,2.86.9,2.3,2.43,2.3l.37,1.36c0,1.87.68,3.59,1.15,5.34q15.83,59.36,31.68,118.72c.46,1.74,1.38,3.42,1,5.33A6.28,6.28,0,0,1,270.65,207.84Z"/><path class="cls-6" d="M274.6,205.87Q258,143.81,241.46,81.74c-.45-1.7-1.61-3.38-.65-5.27Q250.93,114,261,151.5q6.6,24.54,13.1,49.1C274.58,202.3,275.71,204,274.6,205.87Z"/><path class="cls-28" d="M444.12,283.66a22.46,22.46,0,0,1,5.68-1.83l97.35-26c1.73-.46,3.46-.91,5.21-1.32a4.11,4.11,0,0,1,3.41.67c13.31.08,25.55,3.38,36.07,11.92a53.35,53.35,0,0,1,16.66,59.76c-.49,1.4-1,2.81-1.42,4.21l-7.18,11.49-6.75,6.84a2.89,2.89,0,0,0-2.32,1.83c-.88,2-3.11,2-4.53,3.17-13,7.3-26.84,9.33-41.31,5.47q-60.88-16.27-121.71-32.7c-1.91-.51-3.87-.85-5.8-1.26-2.12-.82-1.53-2.47-1.4-4.13.29-3.59.39-7.19.56-10.78-1.17-4.19-1.9-8.39-.42-12.66,0-2.55-1-3.37-1.34-5.17-.36-2,1.78-1.59,4.28-2.46"/><path class="cls-1" d="M586.29,354.37a12.81,12.81,0,0,1,4.53-3.17C590.9,354.52,588,353.55,586.29,354.37Z"/><path class="cls-20" d="M292.17,201.37c-1.64-.7-1.78-2.29-2.16-3.72q-16.2-60.61-32.38-121.22a10.93,10.93,0,0,1-.13-1.73c1.55,1.56,1.51,3.42,1.94,5.05q15.47,57.7,30.88,115.41c.56,2.09,1.24,4.15,1.86,6.22Z"/><path class="cls-12" d="M312.61,201a1.94,1.94,0,0,1,2.29.2c-1,.34.51,2.28-1.23,2.08C312.29,203.15,312.35,202.09,312.61,201Z"/><path class="cls-29" d="M476.56,492.44l-.49-.86c1.65-.42.7-3.79,3.4-3C479.09,490.31,478.4,491.8,476.56,492.44Z"/><path class="cls-30" d="M555.77,255.14l-2.94.41a40.55,40.55,0,0,0-12,.71Q501,266.87,461.24,277.53a66,66,0,0,1-7.28,1.75c-2-.17-4.3.77-5.78-1.48q46.66-12.55,93.31-25.11c2.07-.56,4.1-1.3,6.14-2l2.79-.44C552.3,251.81,556.29,251,555.77,255.14Z"/><path class="cls-31" d="M416.5,298.43c.27,4.17.8,8.34.14,12.53-2.9-1-3.88-3.82-5.64-5.9l-1.67-17.19,2-.25c4.34.69,4.42,4.45,5.45,7.54A4.4,4.4,0,0,1,416.5,298.43Z"/><path class="cls-18" d="M443.77,281.56c-.26-1.31-.81-2.75,1.35-2.94a10.29,10.29,0,0,0,5.36.89,30.16,30.16,0,0,0,6.84-1.35q41.21-11,82.43-22c2.61-.69,5.43-2.46,8.16-.07-1.36,1.09-3.08,1.2-4.66,1.63q-46.46,12.45-92.94,24.83c-1.88.5-3.74,1.56-5.8.66A1.55,1.55,0,0,1,443.77,281.56Z"/><path class="cls-31" d="M413.43,287l9.39-2.53c1.83,1.66,1.36,3.46.32,5.3-2.31.88-4.74,1.34-7.11,2A6.47,6.47,0,0,1,413.43,287Z"/><path class="cls-32" d="M448.18,280.44c.18.46-1.64,1.92-1.46,2.38-1.83,2.87-6.6,3.88-9.84,3.7-2.59-1.92-.89-3.8.08-5.68C439.48,279.93,446,277.63,448.18,280.44Z"/><path class="cls-33" d="M436.59,280.85c.64,1.88-.45,3.48-.85,5.2a2.28,2.28,0,0,1-2.33,1.13c-1.76-2-2.34.4-3.44.93a2.36,2.36,0,0,1-2,.15c-1.47-2.85.1-4.43,2.39-5.71Z"/><path class="cls-18" d="M430.36,282.53A9.26,9.26,0,0,0,428,288a2.37,2.37,0,0,1-2.86,1.08c-2.31-2.19-1.18-3.89.78-5.47Z"/><path class="cls-1" d="M448.75,280.44c-1.86.69-3.2.34-3.62-1.83l3.06-.81c1.28.93,2.95-.67,4.17.64-.55,1.36-1.88,1.44-3,1.84Z"/><path class="cls-34" d="M413.43,287a10.32,10.32,0,0,1,2.19,4.61c1.41,1.33,2.06,2.68.11,4.1-1-2.94-1.55-6.18-4.41-8.12Z"/><path class="cls-34" d="M425.92,283.66c-.95,1.63-1.6,3.31-.81,5.21a1.45,1.45,0,0,1-2,.42l-.34-4.79Z"/><path class="cls-35" d="M431.75,277.2c-1.31,1-2.26,1.37-3.44.95C429.11,277.16,430.12,277,431.75,277.2Z"/><path class="cls-2" d="M148,131.29a12.25,12.25,0,0,1,4.58,4.42C147.23,138.25,149.52,132.82,148,131.29Z"/><path class="cls-2" d="M544.13,133.93l-4.65-1.72C542.28,129.38,543,132.31,544.13,133.93Z"/><path class="cls-2" d="M416.74,431.83a8.09,8.09,0,0,1-3.14-3.18C415.77,428.6,416.34,430.13,416.74,431.83Z"/><path class="cls-1" d="M548.31,256.78l-.5-.62c-2-1.44-3.87-.07-5.68.41q-43.84,11.63-87.65,23.34c-1.84.49-3.69,1.77-5.73.53h0c1.43-1.33,3.35-1.37,5.08-1.83q41.64-11.18,83.3-22.31c1.73-.46,3.66-.48,5.06-1.86,3.53.47,7.35-1.75,10.63,1.12Z"/><path class="cls-36" d="M542.2,254.44c-1.15,2.09-3.4,1.9-5.23,2.4q-44.09,11.86-88.21,23.6c.64-1.68,2.31-1.5,3.6-2Z"/><path class="cls-32" d="M432.86,286.81l-2.92.75c.29-1.83,1.65-2.77,3.17-3.82C434.16,284.9,432.67,285.82,432.86,286.81Z"/><path class="cls-37" d="M428.33,293.13"/><path class="cls-38" d="M173.32,287.49l4.46,1.13c7,2.07,13.92,4.32,21,6.12,3.19.82,4.22,2,3.65,5.41-1.63,9.73-1.17,19.51,0,29.27.06.49-4.52,2-5,2.22a45.18,45.18,0,0,1-5.54,1.49c-1.74.36-3.52.71-5.28.92a88.58,88.58,0,0,0-8.73,2c-1,.34-2.18.48-3.26.75L167,338.61q-7.55,1.85-15.1,3.72L145,344.09q-37.43,9.56-74.82,19.25c-2.21-.51-4.12,1.4-6.34.8l-5.88.24c-.79-.15-1.62.25-2.38-.2-18.38-2.37-32.9-10.84-42.16-27.24A53.14,53.14,0,0,1,39,261.87a25.54,25.54,0,0,0,2.57-1.46c3.36-1.65,6.8-3,10.65-2.62,15.67-1.61,30,4.38,44.57,8.35C122.34,273.09,147.81,280.35,173.32,287.49Z"/><circle class="cls-39" cx="309.6" cy="307.96" r="89.92"/><path class="cls-1" d="M35.41,418.34c5.48-19.81,18.87-34.9,40.92-41.1,43.5-12.24,87.15-24,130.68-36.08,3.58-1,4.73-.34,6,3.06a90.34,90.34,0,0,0,17.17,29.05c1.88,2.12,2.13,3.44-.06,5.66-32.19,32.43-64,65.27-96.53,97.34-18.42,18.15-40.89,22-64.5,11.81-22.61-9.77-34-28.26-35.62-52.78C33.1,430.27,33.91,425.35,35.41,418.34Z"/><path class="cls-40" d="M177.39,355.55l4.4-1.34c7-1.84,14.15-3.51,21.12-5.61,3.15-.95,4.64-.48,5.92,2.74,3.64,9.17,9.09,17.3,15.17,25-3.23,5.62-8.08,9.68-13,13.64a6,6,0,0,0-3.53,3.58c-8.34,8.34-16.73,16.63-25,25q-27.09,27.54-54.08,55.18c-2.16.71-2.8,3.33-5,4L118.43,481c-.75.28-1.25,1.05-2.14,1.06-17,7.48-33.76,7.74-50.17-1.51a53.14,53.14,0,0,1-17-77.48,25.54,25.54,0,0,0,1.45-2.58c2-3.15,4.28-6.07,7.76-7.75,12.59-9.48,27.9-11.75,42.46-15.9C126.31,369.59,151.87,362.64,177.39,355.55Z"/><path class="cls-41" d="M177.79,354.53l4.41-1.31c7.06-1.8,14.17-3.42,21.15-5.48,3.16-.93,4.64-.45,5.9,2.78,3.58,9.19,9,17.36,15,25.12.3.39-2.83,4.07-3.2,4.49a45.18,45.18,0,0,1-4,4.11c-1.31,1.2-2.66,2.41-4.06,3.5a88.58,88.58,0,0,0-6.49,6.15c-.72.83-1.63,1.53-2.42,2.31l-5.54,5.46Q193,407.12,187.5,412.6l-5.06,5.06Q155.18,445,128,472.5c-2.16.69-2.82,3.31-5,3.93l-4.93,3.21c-.75.27-1.26,1-2.14,1-17,7.37-33.81,7.53-50.16-1.81a53.14,53.14,0,0,1-16.49-77.58,25.54,25.54,0,0,0,1.47-2.57c2-3.14,4.31-6,7.81-7.71,12.64-9.4,28-11.58,42.56-15.65C126.62,368.27,152.22,361.46,177.79,354.53Z"/><path class="cls-41" d="M218.32,413.63l3.12-3.38c5.15-5.15,10.43-10.18,15.39-15.52,2.24-2.41,3.76-2.76,6.49-.63,7.77,6.07,16.59,10.33,25.74,13.93.46.18-.36,4.94-.45,5.5a45.18,45.18,0,0,1-1.33,5.58c-.51,1.7-1.05,3.43-1.7,5.08a88.58,88.58,0,0,0-2.44,8.61c-.2,1.09-.61,2.15-.9,3.22l-2,7.52q-2,7.52-3.93,15-.89,3.46-1.77,6.93-9.45,37.46-18.76,74.95c-1.5,1.7-.73,4.28-2.32,6l-2.59,5.28c-.51.62-.55,1.54-1.31,2-10.85,15-25.22,23.75-44,24.07a53.14,53.14,0,0,1-53.8-58.27,25.54,25.54,0,0,0-.05-3c.15-3.74.62-7.4,2.77-10.61,6.06-14.54,18.13-24.24,28.59-35.19C181.36,451.58,199.89,432.65,218.32,413.63Z"/><path class="cls-41" d="M285.24,443.92l1.12-4.46c2-7,4.27-13.94,6.06-21,.81-3.19,2-4.22,5.39-3.66,9.73,1.6,19.52,1.11,29.27-.12.49-.06,2.06,4.51,2.24,5a45.18,45.18,0,0,1,1.51,5.53c.37,1.74.72,3.52.94,5.27a88.58,88.58,0,0,0,2,8.72c.35,1,.49,2.18.76,3.26l1.87,7.55q1.87,7.55,3.77,15.09.88,3.47,1.77,6.93,9.67,37.4,19.48,74.76c-.5,2.21,1.41,4.11.82,6.33l.25,5.88c-.15.79.26,1.62-.19,2.38-2.32,18.39-10.74,32.93-27.11,42.24A53.14,53.14,0,0,1,260,578.33a25.54,25.54,0,0,0-1.46-2.57c-1.66-3.35-3-6.79-2.65-10.64-1.65-15.67,4.29-30,8.22-44.59C271,494.95,278.18,469.45,285.24,443.92Z"/><path class="cls-41" d="M355.94,440.5l-1.42-4.37c-2-7-3.79-14.08-6-21-1-3.13-.57-4.63,2.62-6,9.09-3.82,17.12-9.44,24.72-15.67.38-.31,4.14,2.73,4.58,3.08a45.18,45.18,0,0,1,4.22,3.88c1.23,1.28,2.48,2.6,3.6,4a88.58,88.58,0,0,0,6.32,6.33c.85.7,1.58,1.59,2.37,2.35l5.6,5.4q5.6,5.4,11.21,10.78l5.19,4.93q28.07,26.54,56.24,53c.75,2.14,3.38,2.73,4.06,4.93l3.34,4.84c.29.75,1.08,1.23,1.1,2.11,7.81,16.81,8.41,33.6-.5,50.19A53.14,53.14,0,0,1,406,567.74a25.54,25.54,0,0,0-2.61-1.4c-3.19-2-6.15-4.15-7.91-7.6-9.73-12.39-12.3-27.66-16.75-42.14C371,491.29,363.54,465.87,355.94,440.5Z"/><path class="cls-41" d="M414.16,396.7l-3.32-3.18c-5.06-5.24-10-10.61-15.25-15.65-2.37-2.28-2.69-3.81-.52-6.5,6.2-7.67,10.61-16.42,14.36-25.5.19-.45,4.94.44,5.49.55a45.18,45.18,0,0,1,5.55,1.43c1.69.54,3.41,1.11,5,1.79a88.58,88.58,0,0,0,8.57,2.59c1.08.22,2.14.65,3.2,1l7.49,2.1q7.49,2.11,15,4.18l6.9,1.89q37.29,10.09,74.62,20c1.67,1.53,4.27.81,5.91,2.42l5.23,2.68c.61.52,1.53.58,2,1.34,14.84,11.11,23.31,25.62,23.31,44.45a53.14,53.14,0,0,1-59.18,52.8,25.54,25.54,0,0,0-3,0c-3.74-.22-7.39-.75-10.56-3-14.44-6.31-23.93-18.55-34.7-29.19C451.47,434.31,432.87,415.46,414.16,396.7Z"/><path class="cls-41" d="M439,261.46l-4.42,1.26c-7.08,1.73-14.2,3.28-21.21,5.27-3.17.9-4.65.4-5.87-2.84-3.49-9.22-8.81-17.45-14.77-25.27-.3-.39,2.88-4,3.24-4.46a45.18,45.18,0,0,1,4-4.07c1.32-1.19,2.68-2.38,4.09-3.45a88.58,88.58,0,0,0,6.56-6.09c.73-.83,1.64-1.52,2.44-2.29l5.6-5.4q5.6-5.4,11.17-10.82l5.11-5q27.53-27.1,55-54.3c2.17-.67,2.85-3.28,5.07-3.88l5-3.16c.76-.26,1.27-1,2.15-1,17.08-7.2,33.88-7.19,50.14,2.31A53.14,53.14,0,0,1,568,216a25.54,25.54,0,0,0-1.49,2.55c-2.07,3.12-4.37,6-7.88,7.63-12.74,9.28-28.09,11.3-42.71,15.22C490.31,248.23,464.64,254.78,439,261.46Z"/><path class="cls-41" d="M400.1,203.47,397,206.84C391.8,212,386.5,217,381.53,222.3c-2.25,2.41-3.77,2.74-6.49.6-7.75-6.1-16.56-10.39-25.69-14-.45-.18.38-4.94.47-5.5a45.18,45.18,0,0,1,1.35-5.57c.52-1.7,1.07-3.43,1.72-5.07a88.58,88.58,0,0,0,2.47-8.6c.2-1.09.62-2.15.91-3.22l2-7.51q2-7.51,4-15,.9-3.46,1.79-6.93,9.58-37.42,19-74.88c1.51-1.69.75-4.28,2.34-5.94L388,65.36c.51-.62.56-1.54,1.31-2,10.91-15,25.3-23.66,44.13-23.91a53.14,53.14,0,0,1,53.59,58.46,25.54,25.54,0,0,0,0,3c-.16,3.74-.65,7.39-2.81,10.6-6.12,14.52-18.22,24.18-28.72,35.09C437.2,165.66,418.6,184.52,400.1,203.47Z"/><path class="cls-41" d="M335.21,172.25l-1.09,4.47c-2,7-4.18,14-5.92,21-.79,3.2-2,4.24-5.37,3.7-9.74-1.54-19.52-1-29.27.31-.48.06-2.08-4.5-2.27-5a45.18,45.18,0,0,1-1.54-5.52c-.38-1.73-.74-3.51-1-5.27a88.58,88.58,0,0,0-2-8.71c-.35-1-.51-2.18-.78-3.25L284,166.45q-1.92-7.54-3.87-15.06-.9-3.46-1.82-6.92-9.91-37.34-20-74.64c.49-2.22-1.44-4.1-.86-6.33l-.29-5.88c.15-.79-.27-1.61.17-2.38,2.2-18.41,10.53-33,26.83-42.41a53.14,53.14,0,0,1,75.32,24.85A25.54,25.54,0,0,0,361,40.24c1.68,3.34,3,6.77,2.72,10.63,1.75,15.66-4.09,30-7.93,44.64C349.12,121.14,342.1,146.68,335.21,172.25Z"/><path class="cls-41" d="M263.78,178.5l1.32,4.4c1.82,7.05,3.46,14.16,5.54,21.14.94,3.16.46,4.64-2.76,5.91-9.18,3.61-17.34,9-25.08,15.09-.39.3-4.07-2.82-4.5-3.18a45.18,45.18,0,0,1-4.12-4c-1.2-1.3-2.42-2.65-3.51-4.05a88.58,88.58,0,0,0-6.17-6.48c-.83-.72-1.54-1.62-2.32-2.41l-5.47-5.53q-5.47-5.53-11-11l-5.07-5q-27.45-27.18-55-54.27c-.7-2.16-3.32-2.81-3.95-5l-3.23-4.92c-.27-.75-1-1.26-1.05-2.14-7.42-17-7.62-33.79,1.67-50.16a53.14,53.14,0,0,1,77.54-16.69,25.54,25.54,0,0,0,2.57,1.46c3.14,2,6.05,4.3,7.73,7.79,9.44,12.62,11.65,27.94,15.76,42.52C249.9,127.37,256.78,153,263.78,178.5Z"/><path class="cls-41" d="M205.14,220l3.34,3.16c5.09,5.21,10.06,10.55,15.34,15.56,2.39,2.27,2.71,3.79.55,6.5-6.16,7.7-10.52,16.48-14.22,25.59-.18.45-4.94-.42-5.49-.51a45.18,45.18,0,0,1-5.56-1.39c-1.69-.53-3.42-1.09-5.06-1.76a88.58,88.58,0,0,0-8.58-2.54c-1.08-.21-2.14-.64-3.21-.93l-7.5-2.06q-7.5-2.06-15-4.1l-6.91-1.85Q115.5,245.75,78.11,236c-1.68-1.52-4.28-.78-5.93-2.38L66.94,231c-.61-.52-1.53-.57-2-1.33-14.9-11-23.46-25.48-23.57-44.31a53.14,53.14,0,0,1,58.87-53.14,25.54,25.54,0,0,0,3,0c3.74.19,7.39.7,10.58,2.89,14.47,6.23,24,18.41,34.87,29C167.61,182.57,186.33,201.31,205.14,220Z"/><polygon class="cls-42" points="279.87 315.37 292.04 308.14 279.98 300.73 377.31 301.45 379.3 301.46 401.92 301.63 401.81 316.26 279.87 315.37"/><polygon class="cls-42" points="368.93 329.76 382.33 308.8 370.17 288.24 461.23 309.67 368.93 329.76"/><polygon class="cls-42" points="339.34 301.46 326.91 308.95 339.32 316.46 239.54 316.31 237.5 316.31 214.3 316.27 214.33 301.27 339.34 301.46"/><polygon class="cls-42" points="247.96 287.24 234.35 308.81 246.94 329.81 153.46 308.38 247.96 287.24"/></g></g></svg>