<svg xmlns="http://www.w3.org/2000/svg" viewBox="0 0 123.57 183.1"><defs><style>.cls-1{fill:none;}.cls-1,.cls-2{stroke:#000;stroke-miterlimit:10;stroke-width:4px;}.cls-2{fill:#fff;}</style></defs><title>Asset 1short</title><g id="Layer_2" data-name="Layer 2"><g id="Layer_1-2" data-name="Layer 1"><g id="lengthShort"><path class="cls-1" d="M2,180.13c3.55-27.23.86-62.25,5.29-117.23,1-12.69,6.08-33.27,20.73-50C40.92-1.89,78.44.37,89.72,7.91c18.63,12.45,23,29.57,25.32,48.51.88,7,6.19,22.44,6.51,106.54,0,4.67,0,11.63,0,20.12"/><line class="cls-1" x1="39.35" y1="149.94" x2="84.93" y2="148.76"/><path class="cls-2" d="M27,99.82c1.5,11.15,18.58,19.42,33.87,19.77,28.81.67,36.64-17.42,37.62-25.17C108.2,18,78.23,12.17,65,12.17,52.58,12.17,14.67,8.3,27,99.82Z"/></g></g></g></svg>