<svg xmlns="http://www.w3.org/2000/svg" viewBox="0 0 102.68 218.14"><defs><style>.cls-1,.cls-4{fill:none;}.cls-1,.cls-2{stroke:#000;stroke-width:4px;}.cls-1,.cls-2,.cls-3,.cls-4{stroke-miterlimit:10;}.cls-2{fill:#ccc;}.cls-3{fill:#fff;stroke:#fff;stroke-width:2px;}.cls-4{stroke:#666;stroke-width:7px;}</style></defs><title>style_line</title><g id="Layer_2" data-name="Layer 2"><g id="Layer_1-2" data-name="Layer 1"><g id="line"><path class="cls-1" d="M2.55,216.89c0-27.45-2.17-64,2.08-112,1-11.07.4-19.58,13.59-34.14,12-13.2,50.78-11.22,61.61-4.64C97.72,77,99.53,94.87,100.49,111.6c.35,6.18.09,99.11.06,106.53"/><line class="cls-1" x1="32.72" y1="186.08" x2="78.16" y2="185.92"/><path class="cls-2" d="M15.29,131.5c0,18.87,22.87,27,38,26.48,28.55-1,32.91-19.23,33-27,.88-48.69,1.28-76.25,0-91.69C84.13,13.29,64.81,2,53.41,2,42.84,2,16,8.17,15.29,51.5,14.93,73.13,15.29,76.75,15.29,131.5Z"/><path class="cls-3" d="M68.46,152.16A17.88,17.88,0,0,0,75.9,147c.94-1.06-2.31.08-4.56-1.76a23.6,23.6,0,0,1-7.13-10.94,24.77,24.77,0,0,1-.56-15.15c1.33-4.74,3.08-5.24,8.44-13.24,5.52-8.23,8.49-12.66,9.61-19,1.22-6.83-.31-12.48-1.45-16.68-1.49-5.51-4.06-10.44-9.2-20.28-3.87-7.42-4.84-8.48-5.84-12.21a41.54,41.54,0,0,1-.85-14.64c.4-3.93.84-4.05,2.21-10.24.14-.62,1-3.06,1-3.06a27.5,27.5,0,0,0-15.5-4.62c-9.6.55-15,3.83-16.62,6.18a23.08,23.08,0,0,0-3.88,15.31C32.3,32.76,36,37,39.44,41c5,5.71,7.35,5.79,15.49,12.83,7.62,6.59,11.43,9.89,13.68,14.82,4.64,10.15.48,20.05-.45,22.1-3.62,8-7.82,6.93-17.29,17.57-5.72,6.42-13.81,15.77-13.43,28.09A25.12,25.12,0,0,0,41,148.69c1.59,2.6,2.94,4.9,9.33,6.13C52,155.15,58.83,155.82,68.46,152.16Z"/><path class="cls-4" d="M84.76,130.18c-11.52-10.89-20.39-19.72-24.44-25.57-6.19-8.94-4.27-20.2.17-29,.4-.79,3.31-5.29,9.3-14.19,6.25-9.29,7.08-10.46,8.33-13.18,2.59-5.63,5-11.14,3.2-17.66-.56-2-2-7.22-6.94-9.64-4.63-2.28-9.64-.76-12.64.15-3.2,1-7.17.3-16,10.25C39.86,38,38,39.41,35.15,39.2c-5.27-.39-7-2.51-8.25-3.92a23.25,23.25,0,0,0-6.67-4.75"/></g></g></g></svg>