<svg xmlns="http://www.w3.org/2000/svg" viewBox="0 0 102.68 218.14"><defs><style>.cls-1{fill:none;}.cls-1,.cls-2{stroke:#000;stroke-width:4px;}.cls-1,.cls-2,.cls-3{stroke-miterlimit:10;}.cls-2{fill:#ccc;}.cls-3{fill:#fff;stroke:gray;stroke-width:3px;}</style></defs><title>style_floral</title><g id="Layer_2" data-name="Layer 2"><g id="Layer_1-2" data-name="Layer 1"><g id="floral"><path class="cls-1" d="M2.55,216.89c0-27.45-2.17-64,2.08-112,1-11.07.4-19.58,13.59-34.14,12-13.2,50.78-11.22,61.61-4.64C97.72,77,99.53,94.87,100.49,111.6c.35,6.18.09,99.11.06,106.53"/><line class="cls-1" x1="32.72" y1="186.08" x2="78.16" y2="185.92"/><path class="cls-2" d="M15.29,131.5c0,18.87,22.87,27,38,26.48,28.55-1,32.91-19.23,33-27,.88-48.69,1.28-76.25,0-91.69C84.13,13.29,64.81,2,53.41,2,42.84,2,16,8.17,15.29,51.5,14.93,73.13,15.29,76.75,15.29,131.5Z"/><path class="cls-3" d="M47.69,152.16c.41-2.57,3.74-2,4.49-5.17,0,.2,6.83,1.25,7.44,1.31C66,149,69,141.58,71.87,137.2c.83-1.27,2.73-1.73,2.57-2.2-.6-1.75-7.94-1.56-9.29-1.43-6.18.6-11.94,4.44-12.94,10.93-.24,1.56-3.07,1.51-4,2.74,1-3.61,1.8-7.27,2.69-10.91.3-1.22,1-2.41-.25-3.14a3.87,3.87,0,0,0-3.06.14c-1.16.62-1.36,2.25-1.6,4.14-.34,2.73-.16,6.74-1.09,8.44-.06.1-.1.21-.21.26-.61.28-2.06-1.65-4.74-2a13.74,13.74,0,0,0-6.31,1c-1.68.61-3.32,1.91-5.12,2-.65,0,.19,1.08,3.42,3,2.45,1.42,8,4.23,10.83,2.09,1.14-.87,3.19-4.25,3.43-4.15s-1.23,3.66-.54,4.06C46.12,152.38,47.62,152.59,47.69,152.16Z"/><path class="cls-3" d="M44.45,134a14.32,14.32,0,0,0-6.65-3.72c-2.32-.61-4.76-.51-7-1.59-1.74-.85-2.78-1.8-3.12-1.48s.29,1.3,1.66,3.82c2,3.69,4.14,7.7,7.91,9.86,2.26,1.3,5,1.7,7.48,2.33a3.22,3.22,0,0,0,1.28.14c1.88-.31,1.39-3.47,1.08-4.73A10.19,10.19,0,0,0,44.45,134Z"/><path class="cls-3" d="M56.4,109.26A26.39,26.39,0,0,1,68.56,91.66c2.88-1.67,6.55-2,9.31.11a6.63,6.63,0,0,1,2.58,3.78c.07.32.65,2.85-.67,4.59-.35.46-.77.79-.68,1.17.14.57,1.18.51,2.09,1,1.83.9,2.55,3.62,2.46,5.56a7.23,7.23,0,0,1-2.06,4.56c-.29.32-2,2.4-3.93,1.71-2.37-.83-4.06-2.45-6.39-3.13a46.85,46.85,0,0,0-7.35-1.59C61.41,109.08,58.84,109.53,56.4,109.26Z"/><path class="cls-3" d="M56.12,110.65a18.92,18.92,0,0,1,1.8,10.44c-.35,3.15-1,4.44.17,6.45,1.56,2.72,8.49,6.52,11.23,3.4,1.81-2.06,0-4.6,3.1-5.79,1.55-.59,3.5-.47,5-1.28,4-2.15,2.42-7.49-.49-9.7C71,109.64,56.12,110.65,56.12,110.65Z"/><path class="cls-3" d="M54.38,110.9a2,2,0,0,0-.77.12c-2.72,1-5.18,2.76-7.95,3.73-4.15,1.45-5.17,0-7,1.87a6.53,6.53,0,0,0-1.45,6.87c1.35,3.07,4.31,2.24,6.63,3.69,1.2.74.71,1.95,1.93,3.84a6.13,6.13,0,0,0,8.93,1.84,7.65,7.65,0,0,0,2.93-5.09c.89-4.21,1.63-9.14,0-13.26C57.1,113,55.94,111,54.38,110.9Z"/><path class="cls-3" d="M55,108.94c-1.62-1.78-3.49-3.26-4.74-5.35-2-3.29-3.8-7.81-7.26-9.83a9.7,9.7,0,0,0-8.25-.16c-3.87,1.78-2.12,4.69-2.65,8a5,5,0,0,1-.43,1.93c-1.37,2.13-3.64,2.72-3.06,5.82,1.11,6,7,7.39,12.27,6.6a26.4,26.4,0,0,0,8.14-2.67A59,59,0,0,0,55,108.94Z"/><path class="cls-3" d="M65.52,91.13a5.18,5.18,0,0,0-1.6-4.85c-2-2.12-5.27-3.76-8.3-2.59a15.93,15.93,0,0,0-2.51,1.91A4.17,4.17,0,0,1,50.31,85c-3.19-2.11-7.51-1.34-9.11,2.41-1.08,2.54-.08,4.59,1.63,6.52,2.55,2.87,4.94,6,7.7,8.66.28.27,5.29,6.6,4.93,6.67.48-.09,2.41-4.35,2.74-4.9C60.62,100.34,64.62,95.93,65.52,91.13Z"/><path class="cls-3" d="M78.06,90.7c.07-.24-.64-7.51-.3-8.9s1.44-5.16,1.66-5.59,3.36-8.34,3.52-9.39c.52-3.29-.69-6.65-2-9.6S78,50.89,75.75,48.53a47.58,47.58,0,0,0-5.08-4.38,6.13,6.13,0,0,1-.35,3.75C68.46,52.4,68.68,57,69.18,61.68c.38,3.64,1.18,6.24,3.66,9.09a9.37,9.37,0,0,0,5.34,3.3c-2,1-1.62,1.59-1.6,3.81l0,5.76a16.54,16.54,0,0,1-4.92,1.63,10.41,10.41,0,0,1-8.37-3.39,20,20,0,0,1-4.39-8.16,9.52,9.52,0,0,0-2-4.16c4,1.06,8,1.07,11.92,2.55,1.13.43,5.24,2.34,5.69,3.34a20.35,20.35,0,0,1,.9,2.85l1.12,5.34-.41-.27"/><path class="cls-3" d="M40.45,7.63c-.18.17-.73,2.35-1.72,3.38s-3.82,3.76-4.23,4-7.07,5.55-7.74,6.38c-2.1,2.58-2.73,6.11-3,9.33s-.66,6.93.12,10.1a47.58,47.58,0,0,0,2.21,6.33,6.13,6.13,0,0,1,2.18-3.07c3.87-3,5.95-7,7.88-11.37,1.49-3.35,2.1-6,1.37-9.7a9.37,9.37,0,0,0-3-5.52c2.22.11,2.19-.57,3.29-2.51l2.83-5a16.54,16.54,0,0,1,5.08,1,10.41,10.41,0,0,1,5.56,7.12A20,20,0,0,1,51,27.42,9.52,9.52,0,0,0,50.61,32c-3-2.93-6.37-4.91-9.05-8.17-.77-.94-3.37-4.64-3.27-5.74a20.35,20.35,0,0,1,.64-2.92l1.6-6.34,4,1.59"/></g></g></g></svg>